<svg width="1728" height="1053" viewBox="0 0 1728 1053" fill="none" xmlns="http://www.w3.org/2000/svg">
<g clip-path="url(#clip0_6_534)">
<path d="M793.621 901.136C794.678 890.1 802.517 887.64 805.368 892.56C808.219 897.48 809.966 903.182 808.563 913.39C807.161 923.598 807.138 937.898 809.644 942.818C812.15 947.738 827.437 952.612 827.437 952.612C827.437 952.612 828.862 925.23 829.575 908.93C830.287 892.629 842.747 881.157 853.782 887.296C864.816 893.434 867.575 913.436 865.529 926.104C863.483 938.772 859.483 969.004 859.483 969.004C863.046 971.855 874.425 966.544 876.219 960.429C878.012 954.313 878.701 935.898 879.782 928.954C880.862 922.011 885.115 916.287 888.311 916.701C891.506 917.114 896.862 923.23 896.862 927.736C896.862 932.242 893.299 966.958 892.586 973.096C891.874 979.235 879.414 991.88 871.897 993.512C865.662 994.549 859.34 994.965 853.023 994.754L846.609 1056.02L830.196 1056.32L824.609 967.372C817.805 966.904 811.265 964.553 805.72 960.583C800.175 956.612 795.842 951.178 793.207 944.887C791.805 941.576 792.54 912.171 793.621 901.136Z" fill="#3B0017"/>
<path d="M1435.25 911.827C1436.75 907.228 1446.75 910.562 1447.74 913.068C1448.8 919.679 1449.2 926.379 1448.93 933.07C1448.63 937.783 1448.33 970.292 1448.33 979.672C1448.33 989.052 1457.53 986.868 1457.53 986.868C1458.12 981.677 1458.41 976.458 1458.4 971.234C1458.4 962.475 1456.63 869.593 1456.63 858.029C1456.63 846.464 1460.49 846.533 1464.66 846.533C1467.03 846.878 1469.22 848.031 1470.84 849.798C1472.46 851.566 1473.43 853.839 1473.57 856.235C1473.28 860.604 1474.47 890.009 1474.17 903.757C1473.87 917.505 1473.28 963.785 1473.28 963.785C1481 965.05 1484.08 960.038 1484.08 955.67C1484.08 951.301 1483.67 922.839 1483.67 916.264C1483.67 909.688 1486.66 905.32 1490.56 906.263C1494.47 907.205 1496.79 912.194 1496.79 917.505C1496.79 922.816 1497.99 951.991 1496.79 962.544C1495.6 973.096 1492.93 975.993 1489.37 976.614C1485.8 977.235 1471.53 975.373 1471.53 975.373L1470.93 1039.15L1458.75 1041.33L1459.34 1001.63C1459.34 1001.63 1440.47 996.478 1437.37 993.19C1434.26 989.903 1435.28 966.291 1434.68 954.405C1434.08 942.519 1433.78 916.517 1435.25 911.827Z" fill="#3B0017"/>
<path d="M213.644 896.63C215.575 891.549 228.701 895.273 229.736 897.963C230.77 900.653 231.667 914.516 231.276 919.574C230.885 924.632 230.517 959.785 230.517 969.901C230.517 980.017 242.471 977.672 242.471 977.672C243.242 972.08 243.626 966.441 243.621 960.797C243.621 951.324 241.322 851.04 241.322 838.533C241.322 826.026 246.333 826.026 251.736 826.026C257.138 826.026 263.69 831.773 263.23 836.509C262.77 841.245 264.379 872.972 263.989 887.847C263.598 902.722 262.839 952.681 262.839 952.681C272.862 954.037 276.885 948.634 276.885 943.898C276.885 939.162 276.333 908.447 276.333 901.343C276.333 894.239 280.195 889.526 285.207 890.537C290.218 891.549 293.322 896.952 293.322 902.699C293.322 908.447 294.862 939.852 293.322 951.324C291.782 962.797 288.31 965.854 283.667 966.521C279.023 967.188 260.517 965.188 260.517 965.188L259.759 1034.16L243.943 1036.46L244.908 993.558C244.908 993.558 220.402 987.994 216.356 984.362C212.31 980.729 213.644 955.325 212.885 942.473C212.126 929.621 211.736 901.596 213.644 896.63Z" fill="#3B0017"/>
<path d="M1333.64 1047.45C1324.45 1042.64 1299.8 1033.03 1299.8 1033.03C1312.09 1034.8 1324.19 1037.72 1335.92 1041.77C1332.2 1036.53 1313.51 1020.14 1313.51 1020.14C1323.6 1025.77 1333.38 1031.97 1342.77 1038.71C1336.33 1022.76 1318.08 998.087 1318.08 998.087C1330.74 1009.5 1341.71 1022.66 1350.66 1037.17C1349.62 1020.8 1339.87 970.774 1339.87 970.774C1348.79 989.351 1358.77 1032.16 1358.77 1032.16C1360.01 1010.76 1368.1 982.339 1368.1 982.339C1368.1 990.224 1366.24 1036.96 1366.24 1036.96C1371 1023.42 1384.29 1007.08 1384.29 1007.08C1381.18 1012.11 1374.54 1033.29 1374.54 1033.29C1383.74 1021.49 1408.59 1003.81 1408.59 1003.81C1396.95 1015.17 1379.11 1039.4 1379.11 1039.4C1408.59 1027.61 1431.83 1028.71 1431.83 1028.71C1413.78 1031.54 1385.97 1045.52 1385.97 1045.52C1399.73 1044.17 1413.61 1044.32 1427.35 1045.95C1412.59 1046.39 1385.97 1051.86 1385.97 1051.86L1342.15 1053.84C1322.43 1049.24 1308.93 1047.26 1308.93 1047.26C1317.15 1046.37 1325.44 1046.43 1333.64 1047.45Z" fill="#3B0017"/>
<path d="M1450.45 1028.76C1446.43 1026.64 1435.55 1022.41 1435.55 1022.41C1440.96 1023.2 1446.29 1024.5 1451.46 1026.27C1448.35 1022.91 1445.05 1019.73 1441.57 1016.76C1446.03 1019.23 1450.33 1021.95 1454.47 1024.92C1451.41 1018.63 1447.77 1012.64 1443.6 1007.03C1449.17 1012.07 1454 1017.86 1457.94 1024.25C1457.48 1017.03 1453.18 995.007 1453.18 995.007C1457.12 1003.19 1461.51 1022.04 1461.51 1022.04C1462.22 1014.62 1463.6 1007.28 1465.62 1000.11C1465.62 1003.56 1464.79 1024.16 1464.79 1024.16C1466.82 1019.42 1469.5 1014.99 1472.75 1010.98C1471.07 1014.72 1469.63 1018.56 1468.45 1022.48C1472.47 1017.28 1483.44 1009.49 1483.44 1009.49C1478.8 1014.45 1474.47 1019.68 1470.47 1025.17C1477.83 1022.14 1485.71 1020.58 1493.67 1020.57C1485.74 1021.81 1473.48 1027.98 1473.48 1027.98C1479.53 1027.38 1485.63 1027.45 1491.67 1028.16C1485.56 1028.65 1479.48 1029.51 1473.48 1030.76L1454.2 1031.63C1445.51 1029.61 1439.57 1028.73 1439.57 1028.73C1443.19 1028.32 1446.84 1028.33 1450.45 1028.76Z" fill="#3B0017"/>
<path d="M1524.56 1028.94C1518.1 1025.15 1500.84 1017.86 1500.84 1017.86C1509.37 1018.88 1517.76 1020.89 1525.83 1023.86C1523 1019.45 1509.46 1006 1509.46 1006C1516.72 1010.52 1523.68 1015.5 1530.31 1020.89C1525.14 1007.35 1511.34 986.523 1511.34 986.523C1520.81 996.304 1528.95 1007.29 1535.55 1019.19C1533.97 1004.94 1524.72 961.716 1524.72 961.716C1531.76 977.534 1540.82 1014.46 1540.82 1014.46C1541.03 999.75 1542.27 985.076 1544.54 970.544C1544.95 977.442 1546.15 1018.32 1546.15 1018.32C1548.68 1006.27 1556.84 991.374 1556.84 991.374C1555 995.972 1551.6 1014.71 1551.6 1014.71C1557.18 1004 1573.16 987.42 1573.16 987.42C1565.87 997.857 1555.02 1019.84 1555.02 1019.84C1574.4 1008.2 1590.26 1008.11 1590.26 1008.11C1578.15 1011.4 1559.99 1024.87 1559.99 1024.87C1569.23 1023.08 1578.68 1022.58 1588.06 1023.38C1578.01 1024.41 1560.31 1030.34 1560.31 1030.34L1530.68 1034.02C1517.05 1030.92 1507.69 1029.81 1507.69 1029.81C1513.24 1028.67 1518.93 1028.38 1524.56 1028.94Z" fill="#3B0017"/>
<path d="M1567.48 1015.84C1563.09 1010.43 1550.43 998.156 1550.43 998.156C1557.5 1002.32 1564.13 1007.19 1570.22 1012.69C1569.21 1008.27 1561.8 992.845 1561.8 992.845C1566.61 999.066 1571.06 1005.56 1575.12 1012.3C1575.12 1000.09 1569.85 979.189 1569.85 979.189C1574.84 989.964 1578.36 1001.36 1580.31 1013.08C1583.6 1001.86 1589.67 966.084 1589.67 966.084C1590.63 980.637 1586.43 1011.65 1586.43 1011.65C1591.41 1000.83 1597.29 990.448 1604.01 980.614C1602.13 985.856 1589.8 1016.66 1589.8 1016.66C1595.94 1008.75 1607.92 1001.01 1607.92 1001.01C1604.82 1003.6 1595.71 1016.18 1595.71 1016.18C1604.08 1010.48 1623.41 1004.69 1623.41 1004.69C1614.29 1009.72 1605.48 1015.3 1597.02 1021.4C1608.78 1020.77 1620.53 1022.65 1631.51 1026.92C1619.87 1024.48 1599.67 1027.15 1599.67 1027.15C1608.34 1029.54 1616.71 1032.93 1624.61 1037.24C1615.94 1034.64 1607.1 1032.64 1598.15 1031.26L1571.11 1022.07C1560.26 1014.27 1552.56 1009.7 1552.56 1009.7C1557.78 1011.1 1562.79 1013.16 1567.48 1015.84Z" fill="#3B0017"/>
<path d="M816.356 1052.51C809.184 1049.93 790.104 1045.42 790.104 1045.42C799.301 1045.45 808.476 1046.34 817.506 1048.09C814.241 1044.62 798.954 1034.53 798.954 1034.53C806.914 1037.61 814.69 1041.15 822.241 1045.13C816.011 1034.07 800.242 1017.81 800.242 1017.81C810.599 1024.88 819.889 1033.4 827.828 1043.1C825.529 1031.17 813.644 995.374 813.644 995.374C821.943 1008.11 833.322 1038.57 833.322 1038.57C832.218 1022.69 835.621 1000.96 835.621 1000.96C836.356 1006.73 839.391 1041.33 839.391 1041.33C841.69 1030.85 849.851 1017.42 849.851 1017.42C848.035 1021.45 845.138 1037.72 845.138 1037.72C850.747 1028.09 867.414 1012.43 867.414 1012.43C859.92 1022 849.023 1041.7 849.023 1041.7C860.629 1034.84 873.456 1030.29 886.793 1028.32C873.782 1032.3 854.609 1045.49 854.609 1045.49C864.581 1043.07 874.786 1041.73 885.046 1041.49C874.912 1043.74 864.93 1046.63 855.161 1050.14L823.115 1056.16C808.172 1054.85 798.057 1054.81 798.057 1054.81C804.047 1053.33 810.188 1052.56 816.356 1052.51Z" fill="#3B0017"/>
<path d="M383.23 1059.66C376.816 1055.43 359.207 1046.46 359.207 1046.46C368.176 1048.69 376.913 1051.77 385.299 1055.66C383 1051.49 370.218 1037.98 370.218 1037.98C377.303 1042.9 384.104 1048.22 390.586 1053.91C386.908 1041.63 375.092 1022.02 375.092 1022.02C383.67 1031.4 390.883 1041.94 396.517 1053.33C396.862 1041.17 393.046 1003.47 393.046 1003.47C398.379 1017.86 402.839 1050.23 402.839 1050.23C405.138 1034.53 413.115 1014.13 413.115 1014.13C412.586 1019.95 408.034 1054.35 408.034 1054.35C412.471 1044.71 423.414 1033.65 423.414 1033.65C420.77 1037.13 414.425 1052.28 414.425 1052.28C421.966 1044.25 441.575 1033.06 441.575 1033.06C432.218 1040.57 417.368 1057.15 417.368 1057.15C430.216 1053.25 443.704 1051.91 457.069 1053.2C443.529 1053.93 422.034 1062.18 422.034 1062.18C432.289 1062.22 442.51 1063.37 452.517 1065.61C442.195 1065.37 431.868 1065.78 421.598 1066.85L389.092 1065.01C374.839 1060.14 365 1057.68 365 1057.68C371.133 1057.62 377.251 1058.29 383.23 1059.66Z" fill="#3B0017"/>
<path d="M260.632 1019.63C254.264 1015.28 236.77 1006.09 236.77 1006.09C245.71 1008.44 254.408 1011.64 262.747 1015.63C260.448 1011.44 247.874 997.742 247.874 997.742C254.9 1002.76 261.638 1008.17 268.057 1013.95C264.54 1001.63 252.954 981.764 252.954 981.764C261.416 991.269 268.497 1001.92 273.988 1013.4C274.494 1001.24 271.161 963.486 271.161 963.486C276.31 977.948 280.356 1010.39 280.356 1010.39C282.931 994.708 291.092 974.453 291.092 974.453C290.471 980.247 285.483 1014.57 285.483 1014.57C290.08 1004.98 301.138 994.041 301.138 994.041C298.448 997.489 291.943 1012.55 291.943 1012.55C299.598 1004.62 319.345 993.696 319.345 993.696C309.897 1001.1 294.839 1017.45 294.839 1017.45C307.737 1013.8 321.225 1012.71 334.54 1014.25C321 1014.8 299.391 1022.73 299.391 1022.73C309.612 1022.9 319.785 1024.16 329.736 1026.5C319.415 1026.11 309.08 1026.38 298.793 1027.31L266.333 1025.01C252.126 1019.93 242.333 1017.33 242.333 1017.33C248.502 1017.38 254.643 1018.15 260.632 1019.63Z" fill="#3B0017"/>
<path d="M220.885 1024.87C216.081 1022.73 203.161 1018.64 203.161 1018.64C209.488 1019.13 215.754 1020.22 221.874 1021.91C218.039 1018.24 213.994 1014.8 209.759 1011.61C215.093 1014.13 220.275 1016.98 225.276 1020.11C221.506 1012.18 211.483 1000.18 211.483 1000.18C218.301 1005.59 224.309 1011.94 229.322 1019.05C228.287 1010.73 221.782 985.488 221.782 985.488C226.908 994.685 233.276 1016.23 233.276 1016.23C233.589 1007.56 234.682 998.93 236.54 990.454C236.77 994.478 237.23 1018.41 237.23 1018.41C239.273 1012.76 242.073 1007.42 245.552 1002.52C243.869 1007.03 242.471 1011.64 241.368 1016.32C245.69 1009.97 257.874 1000.09 257.874 1000.09C252.836 1006.2 248.169 1012.61 243.897 1019.28C252.202 1015.13 261.236 1012.64 270.494 1011.95C261.299 1014 247.506 1022.09 247.506 1022.09C254.485 1020.94 261.568 1020.55 268.632 1020.92C261.564 1021.94 254.569 1023.41 247.69 1025.33L225.391 1027.81C215.161 1026.14 208.218 1025.52 208.218 1025.52C212.401 1024.8 216.652 1024.59 220.885 1024.87Z" fill="#3B0017"/>
<path d="M-64.4483 925.92C-48.3563 930.518 12.4713 944.519 31.6897 946.083C50.9081 947.646 118.218 956.911 132.655 956.911C147.092 956.911 183.943 1006.52 199.966 1015.81C215.989 1025.1 307.322 1018.92 324.954 1025.12C342.586 1031.33 360.218 1049.91 393.92 1059.22C427.621 1068.53 567 1068.42 656.747 1066.97C746.494 1065.52 953.299 1026.66 982.057 1018.92C1010.82 1011.17 1034.93 995.512 1057.37 1000.16C1079.8 1004.8 1273.71 1042.16 1294.54 1045.26C1315.37 1048.37 1464.4 1026.66 1477.23 1026.66H1558.95C1576.59 1026.66 1699.97 1006.52 1733.67 1000.32C1767.37 994.11 1817 956.911 1817 956.911L1812.2 1177H-151V929.024C-151 929.024 -80.4713 921.276 -64.4483 925.92Z" fill="#3B0017"/>
<path d="M1503.09 897.113C1503.76 885.801 1503.09 812.047 1503.09 796.782C1503.09 781.516 1508.13 780.527 1511.14 780.527C1514.15 780.527 1520.1 784.068 1520.1 793.954C1520.1 803.84 1520.89 872.122 1520.1 883.341C1519.32 894.561 1522.13 901.734 1527.16 901.734C1532.2 901.734 1536.56 893.25 1537.23 878.053C1537.9 862.857 1540.93 717.303 1540.93 697.531C1540.93 677.759 1547.64 677.736 1552.01 678.794C1556.38 679.852 1560.06 685.875 1560.06 694.336C1560.06 702.796 1558.06 833.199 1558.06 852.281C1558.06 871.363 1559.39 878.421 1566.45 877.708C1573.51 876.996 1574.84 864.995 1574.84 857.914C1574.84 850.833 1574.84 635.457 1575.18 620.605C1575.53 605.753 1586.68 607.891 1588.98 612.121C1591.28 616.352 1591.67 631.571 1591 659.827C1590.33 688.082 1589.67 868.88 1588.31 877.364C1586.95 885.847 1591.16 904.033 1593.69 906.677C1596.22 909.321 1601.41 905.274 1601.41 894.676C1601.41 884.077 1602.75 748.754 1603.09 736.385C1603.44 724.017 1616.89 726.132 1619.18 730.04C1621.48 733.948 1622.54 739.236 1622.54 758.296C1622.54 777.355 1620.36 883.065 1620.36 904.01C1620.36 924.954 1616.22 925.69 1610.06 932.196C1603.9 938.702 1590.82 935.093 1584.66 943.025C1578.49 950.956 1577.76 1021.79 1577.76 1041.29L1543.62 1038.46C1543.62 1038.46 1546.63 927.874 1543.62 923.644C1540.61 919.413 1525.23 920.816 1517.44 920.816C1509.64 920.816 1502.4 908.493 1503.09 897.113Z" fill="#3B0017"/>
<path d="M91.2529 692.382C98.4943 692.382 103.989 700.014 104.655 708.475C105.322 716.935 103.989 788.942 103.989 799.817C103.989 810.691 117.138 813.818 117.138 813.818C117.138 813.818 118.08 720.43 117.138 699.325C116.195 678.219 125.276 663.436 140.012 665.483C154.747 667.529 163 684.818 163 703.141C163 721.465 160.08 868.259 160.08 868.259C168.655 865.707 174.149 862.397 174.149 852.994C174.149 843.591 173.506 776.665 172.609 767.239C171.713 757.813 173.506 745.375 183.184 745.628C192.862 745.881 197.69 757.836 197.92 771.055C198.149 784.275 196.816 838.992 191.023 861.638C185.23 884.284 158.517 888.836 158.517 888.836L151.322 987.695H129.736L118.517 834.141C94.977 832.624 86.3333 811.496 84.6552 801.817C82.977 792.138 81.115 743.559 79.3678 722.453C77.6207 701.348 83.9885 692.382 91.2529 692.382Z" fill="#3B0017"/>
<path d="M131.897 958.451L125.92 959.371C126.77 935.99 138.494 913.873 138.494 913.873C133.575 929.874 131.897 958.451 131.897 958.451Z" fill="#3B0017"/>
<path d="M108.287 890.882C113.741 908.144 117.74 925.831 120.241 943.76C120.875 922.852 123.586 902.058 128.333 881.686C125 909.275 126.287 959.325 126.287 959.325L122.035 959.969L120.287 960.245L117.667 960.636C117.667 960.636 113.483 914.999 108.287 890.882Z" fill="#3B0017"/>
<path d="M100.057 963.303C100.057 963.303 84.1264 940.312 71.046 928.656C71.046 928.656 94.2644 943.347 106.77 962.291L100.057 963.303Z" fill="#3B0017"/>
<path d="M105.414 950.428C99.5354 933.861 92.7905 917.615 85.2069 901.757C91.409 911.23 97.0138 921.082 101.989 931.254C96.8435 912.642 90.7591 894.302 83.7586 876.306C92.3122 891.831 99.7041 907.969 105.874 924.586C100.954 905.343 94.6782 882.445 89 866.512C102.811 896.502 113.444 927.856 120.724 960.061L117.023 960.636L114.724 960.98H114.402L111.92 961.348L110.287 961.601H109.506L105.23 962.268C105.23 962.268 81.7356 921.023 64.5862 899.297C79.9461 914.865 93.6302 932.003 105.414 950.428Z" fill="#3B0017"/>
<path d="M934.862 1052.32L929.23 1050.02C940.931 1030.16 961.529 1017.03 961.529 1017.03C949.713 1028.34 934.862 1052.32 934.862 1052.32Z" fill="#3B0017"/>
<path d="M946.058 981.304C942.716 999.067 937.887 1016.52 931.621 1033.47C941.932 1015.68 954.058 999.008 967.805 983.718C951.966 1005.95 929.575 1050.14 929.575 1050.14L923.943 1047.84L921.46 1046.8C921.46 1046.8 939.253 1005.05 946.058 981.304Z" fill="#3B0017"/>
<path d="M904.885 1039.98C904.885 1039.98 901.828 1011.74 895.943 994.777C895.943 994.777 909.23 1019.63 911.207 1042.57L904.885 1039.98Z" fill="#3B0017"/>
<path d="M915.598 1031.58C918.267 1014.06 920.024 996.412 920.862 978.706C921.822 990.175 922.076 1001.69 921.621 1013.19C925.923 994.274 929.276 975.153 931.667 955.9C931.772 973.827 930.573 991.737 928.081 1009.49C932.839 990.178 938.15 967.027 940.701 950.198C938.633 983.289 933.156 1016.08 924.357 1048.05L920.839 1046.6L918.701 1045.72L918.403 1045.61L916.104 1044.64L914.563 1044L913.828 1043.7L909.805 1042.05C909.805 1042.05 908.839 993.765 904.104 965.992C910.115 987.418 913.965 1009.39 915.598 1031.58Z" fill="#3B0017"/>
<path d="M165.345 1003.15L160.103 999.949C174.586 982.201 196.885 972.568 196.885 972.568C183.529 981.856 165.345 1003.15 165.345 1003.15Z" fill="#3B0017"/>
<path d="M186.77 934.794C180.882 951.785 173.561 968.244 164.885 983.994C177.673 968.096 192.089 953.579 207.897 940.68C188.977 960.084 160.425 1000.16 160.425 1000.16L156.701 997.857L155.184 996.915L152.885 995.512C152.885 995.512 176.586 957.072 186.77 934.794Z" fill="#3B0017"/>
<path d="M137.529 986.132C137.529 986.132 138.632 957.716 135.23 940.013C135.23 940.013 144.747 966.705 143.345 989.719L137.529 986.132Z" fill="#3B0017"/>
<path d="M149.345 979.534C154.537 962.658 158.841 945.522 162.241 928.196C161.531 939.638 160.11 951.025 157.989 962.291C164.992 944.286 171.084 925.939 176.241 907.32C173.743 925.03 169.955 942.534 164.908 959.693C172.425 941.3 181 919.345 186.012 903.136C179.167 935.459 168.974 966.98 155.598 997.191L152.333 995.19L150.356 993.972L150.08 993.811L147.92 992.478L146.494 991.604L145.828 991.259L142.081 988.96C142.081 988.96 148.195 941.094 147.529 912.907C150.362 934.999 150.97 957.32 149.345 979.534Z" fill="#3B0017"/>
</g>
<defs>
<clipPath id="clip0_6_534">
<rect width="1728" height="1053" fill="white"/>
</clipPath>
</defs>
</svg>
