<svg width="1728" height="1053" viewBox="0 0 1728 1053" fill="none" xmlns="http://www.w3.org/2000/svg">
<g clip-path="url(#clip0_6_534)">
<path d="M864.224 669.206C1010.3 669.206 1128.72 562.799 1128.72 431.54C1128.72 300.281 1010.3 193.874 864.224 193.874C718.146 193.874 599.726 300.281 599.726 431.54C599.726 562.799 718.146 669.206 864.224 669.206Z" fill="#FFDEC9"/>
<path opacity="0.4" d="M864.224 669.206C1010.3 669.206 1128.72 562.799 1128.72 431.54C1128.72 300.281 1010.3 193.874 864.224 193.874C718.146 193.874 599.726 300.281 599.726 431.54C599.726 562.799 718.146 669.206 864.224 669.206Z" fill="url(#paint0_linear_6_534)"/>
<path opacity="0.4" d="M864.224 897.193C1150.43 897.193 1382.45 688.713 1382.45 431.54C1382.45 174.367 1150.43 -34.1125 864.224 -34.1125C578.017 -34.1125 346 174.367 346 431.54C346 688.713 578.017 897.193 864.224 897.193Z" fill="url(#paint1_radial_6_534)"/>
</g>
<defs>
<linearGradient id="paint0_linear_6_534" x1="864.224" y1="669.206" x2="864.224" y2="193.874" gradientUnits="userSpaceOnUse">
<stop stop-color="white" stop-opacity="0"/>
<stop offset="0.1" stop-color="#FFFEFC" stop-opacity="0.02"/>
<stop offset="0.23" stop-color="#FFFAF3" stop-opacity="0.08"/>
<stop offset="0.36" stop-color="#FFF5E4" stop-opacity="0.18"/>
<stop offset="0.5" stop-color="#FFEDCF" stop-opacity="0.31"/>
<stop offset="0.65" stop-color="#FFE3B4" stop-opacity="0.48"/>
<stop offset="0.81" stop-color="#FFD794" stop-opacity="0.7"/>
<stop offset="0.97" stop-color="#FFC86E" stop-opacity="0.94"/>
<stop offset="1" stop-color="#FFC565"/>
</linearGradient>
<radialGradient id="paint1_radial_6_534" cx="0" cy="0" r="1" gradientUnits="userSpaceOnUse" gradientTransform="translate(864.224 431.54) rotate(180) scale(518.224 465.653)">
<stop stop-color="white"/>
<stop offset="0.1" stop-color="white" stop-opacity="0.98"/>
<stop offset="0.23" stop-color="white" stop-opacity="0.92"/>
<stop offset="0.36" stop-color="white" stop-opacity="0.83"/>
<stop offset="0.5" stop-color="white" stop-opacity="0.69"/>
<stop offset="0.65" stop-color="white" stop-opacity="0.52"/>
<stop offset="0.81" stop-color="white" stop-opacity="0.31"/>
<stop offset="0.96" stop-color="white" stop-opacity="0.06"/>
<stop offset="1" stop-color="white" stop-opacity="0"/>
</radialGradient>
<clipPath id="clip0_6_534">
<rect width="1728" height="1053" fill="white"/>
</clipPath>
</defs>
</svg>
