<svg width="1728" height="1053" viewBox="0 0 1728 1053" fill="none" xmlns="http://www.w3.org/2000/svg">
<g clip-path="url(#clip0_6_534)">
<path d="M1873 1010.04C1873 1010.04 1775.02 869.129 1756.64 862.484C1738.26 855.84 1726.02 855.426 1709.69 855.426C1693.36 855.426 1536.54 871.252 1521.62 859.136C1506.71 847.021 1440.96 854.563 1426.66 850.231C1412.36 845.899 1340.19 909.478 1315.69 915.139C1291.2 920.8 1234.05 944.944 1211.59 930.378C1189.12 915.812 1138.1 900.245 1123.74 900.245C1109.37 900.245 1025.74 912.516 1017.58 919.229C1009.41 925.943 989.001 947.291 960.424 951.502C931.847 955.713 825.757 985.57 807.378 982.29C788.999 979.011 716.67 956.403 714.93 954.971C713.19 953.538 705.921 951.709 702.872 951.709C699.823 951.709 694.363 955.368 691.366 954.557C688.369 953.745 670.851 952.123 664.357 951.312C657.863 950.501 626.823 931.621 620.329 930.809C607.375 929.187 571.616 900.349 549.705 902.575C533.686 904.197 499.959 893.842 492.965 893.031C485.972 892.22 443.219 910.29 436.226 906.614C429.232 902.938 415.986 913.258 411.042 911.532C406.099 909.806 389.735 898.192 383.224 898.192C376.712 898.192 340.16 906.044 327.069 904.422C313.978 902.799 276.462 905.181 265.747 903.645C255.033 902.109 225.595 896.983 217.62 892.376C209.645 887.768 163.429 879.052 156.281 871.89C149.133 864.728 105.57 820.702 98.008 819.684C90.4462 818.666 73.7377 820.461 70.2754 817.631C66.8131 814.8 29.9339 804.325 26.1443 801.253C22.3548 798.181 -31.2157 786.393 -40.6724 784.34C-50.129 782.286 -84.1661 781.785 -94.8974 779.162C-105.629 776.539 -151 772 -151 772V1127H1858.89L1873 1010.04Z" fill="#73002D"/>
<path d="M1106.67 858.394C1105.63 856.461 1098.54 857.877 1097.92 858.912C1097.18 861.595 1096.9 864.385 1097.09 867.161C1097.3 869.094 1097.5 882.521 1097.5 886.387C1097.5 890.253 1091.04 889.355 1091.04 889.355C1090.62 887.23 1090.4 885.068 1090.41 882.901C1090.41 879.294 1091.66 840.981 1091.66 836.2C1091.66 831.42 1088.96 831.42 1086.03 831.42C1083.1 831.42 1079.57 833.629 1079.78 835.424C1079.98 837.219 1079.16 849.351 1079.36 855.029C1079.57 860.707 1079.98 879.812 1079.98 879.812C1074.58 880.312 1072.41 878.258 1072.41 876.446C1072.41 874.634 1072.7 862.899 1072.7 860.189C1072.73 859.58 1072.61 858.973 1072.37 858.414C1072.13 857.854 1071.77 857.357 1071.31 856.96C1070.84 856.563 1070.3 856.276 1069.71 856.12C1069.12 855.965 1068.51 855.946 1067.91 856.064C1066.74 856.169 1065.65 856.699 1064.84 857.555C1064.04 858.41 1063.57 859.531 1063.53 860.707C1063.53 862.899 1062.69 874.91 1063.53 879.294C1064.38 883.677 1066.24 884.834 1068.7 885.093C1071.17 885.351 1081.21 884.575 1081.21 884.575L1081.62 910.894L1090.23 911.791L1089.82 895.413C1089.82 895.413 1103.05 893.29 1105.32 891.961C1107.6 890.632 1106.79 880.864 1107.2 875.963C1107.61 871.062 1107.72 860.327 1106.67 858.394Z" fill="#73002D"/>
<path d="M432.247 904.905C428.078 902.886 417.071 899.227 417.071 899.227C422.374 899.435 427.635 900.263 432.746 901.695C429.259 898.069 425.573 894.641 421.705 891.426C426.408 893.88 430.958 896.618 435.33 899.624C431.368 891.426 421.808 879.242 421.808 879.242C428.157 884.821 433.757 891.202 438.465 898.226C436.742 889.442 428.629 863.071 428.629 863.071C433.797 872.529 441.41 894.999 441.41 894.999C440.725 885.867 440.673 876.698 441.255 867.558C441.893 871.804 444.907 897.139 444.907 897.139C445.898 891.205 447.592 885.412 449.954 879.881C449.064 884.763 448.426 889.688 448.042 894.636C450.867 887.733 459.755 876.602 459.755 876.602C456.262 883.468 453.145 890.519 450.419 897.726C461.667 889.528 471.382 888.682 471.382 888.682C464.148 891.323 453.761 900.608 453.761 900.608C459.337 899.03 465.106 898.24 470.9 898.261C465.206 899.724 459.641 901.651 454.26 904.025L444.976 910.928L436.363 907.804C427.751 906.562 422.066 906.337 422.066 906.337C425.369 905.352 428.801 904.87 432.247 904.905Z" fill="#73002D"/>
<path d="M1128.59 902.178C1126.58 900.452 1121.03 897.087 1121.03 897.087C1123.91 897.907 1126.68 899.066 1129.28 900.539C1127.85 898.094 1126.28 895.731 1124.58 893.463C1126.84 895.424 1128.97 897.522 1130.97 899.745C1129.74 895.315 1128.16 890.992 1126.23 886.818C1128.96 890.726 1131.16 894.973 1132.78 899.451C1132.97 894.429 1132 878.931 1132 878.931C1133.32 885.254 1134.26 891.652 1134.81 898.088C1135.61 892.998 1136.76 887.969 1138.26 883.039C1138.05 885.438 1136.38 899.693 1136.38 899.693C1137.7 896.58 1139.39 893.637 1141.41 890.926C1140.28 893.473 1139.29 896.077 1138.43 898.727C1141.05 895.652 1143.99 892.864 1147.2 890.408C1144.39 893.715 1141.76 897.171 1139.33 900.763C1143.3 898.986 1147.65 898.233 1151.99 898.571C1147.68 899.072 1140.77 902.782 1140.77 902.782C1144.03 902.654 1147.3 902.979 1150.47 903.749C1147.16 903.797 1143.87 904.12 1140.62 904.715L1134.62 907.269L1130.28 904.422C1125.77 902.696 1122.65 901.747 1122.65 901.747C1124.64 901.585 1126.65 901.73 1128.59 902.178Z" fill="#73002D"/>
<path d="M998.836 934.882C995.391 934.986 986.779 936.194 986.779 936.194C990.618 934.759 994.579 933.673 998.612 932.949C995.407 931.935 992.146 931.105 988.846 930.464C992.626 930.442 996.404 930.632 1000.16 931.034C995.993 928.134 991.551 925.648 986.899 923.613C992.259 924.779 997.422 926.715 1002.23 929.36C999.491 924.976 989.19 912.602 989.19 912.602C994.564 916.364 1003.85 926.685 1003.85 926.685C1001.81 921.74 1000.24 916.615 999.146 911.377C1000.32 913.569 1006.74 926.909 1006.74 926.909C1006.49 923.168 1006.77 919.409 1007.55 915.743C1007.71 918.703 1008.07 921.649 1008.62 924.562C1009.52 919.851 1014.15 911.014 1014.15 911.014C1012.77 915.789 1011.67 920.641 1010.86 925.546C1014.71 920.969 1019.39 917.153 1024.64 914.293C1019.78 917.918 1013.75 926.167 1013.75 926.167C1017.55 923.638 1021.59 921.504 1025.81 919.799C1021.92 922.278 1018.19 924.992 1014.63 927.927L1002.14 935.366C995.701 937.195 991.464 938.817 991.464 938.817C993.768 937.235 996.24 935.915 998.836 934.882Z" fill="#73002D"/>
<path d="M485.369 814.093C486.57 814.18 487.696 814.707 488.535 815.572C489.373 816.438 489.865 817.582 489.917 818.787C490.141 821.255 489.693 842.379 489.693 845.589C489.693 848.799 494.137 849.696 494.137 849.696C494.137 849.696 494.464 822.307 494.137 816.112C493.81 809.916 496.893 805.584 501.888 806.171C506.883 806.758 509.622 811.849 509.622 817.234C509.622 822.618 508.658 865.677 508.658 865.677C511.569 864.935 513.429 863.951 513.429 861.207C513.429 858.463 513.205 838.772 512.912 836.045C512.62 833.318 513.205 829.625 516.478 829.694C519.751 829.763 521.404 833.284 521.473 837.167C521.542 841.05 521.112 857.1 519.165 863.744C517.219 870.389 508.158 871.718 508.158 871.718L505.781 900.728H498.443L494.654 855.667C491.957 855.604 489.359 854.635 487.276 852.918C485.193 851.2 483.746 848.832 483.164 846.193C482.579 843.362 481.976 829.09 481.442 822.894C480.908 816.699 482.906 814.093 485.369 814.093Z" fill="#73002D"/>
<path d="M511.293 901.177L509.708 900.556C512.092 897.034 515.169 894.039 518.752 891.754C515.967 894.646 513.469 897.802 511.293 901.177Z" fill="#73002D"/>
<path d="M514.394 882.193C513.449 886.939 512.094 891.593 510.346 896.103C513.256 891.342 516.656 886.9 520.491 882.849C516.584 888.54 513.006 894.452 509.777 900.556L508.658 900.124L508.193 899.935L507.504 899.676C507.504 899.676 512.516 888.458 514.394 882.193Z" fill="#73002D"/>
<path d="M502.887 897.726C502.433 893.629 501.597 889.585 500.39 885.645C502.558 889.602 504.005 893.915 504.661 898.381L502.887 897.726Z" fill="#73002D"/>
<path d="M505.902 895.551C506.64 890.886 507.129 886.185 507.366 881.468C507.634 884.515 507.703 887.577 507.572 890.633C508.785 885.595 509.728 880.497 510.397 875.359C510.424 880.141 510.09 884.917 509.398 889.649C510.725 884.471 512.206 878.327 512.93 873.84C512.346 882.679 510.81 891.428 508.348 899.935L507.366 899.555L506.763 899.313L506.108 899.054L505.678 898.899L505.471 898.813L504.351 898.364C504.217 891.579 503.682 884.808 502.749 878.086C504.401 883.782 505.458 889.636 505.902 895.551Z" fill="#73002D"/>
<path d="M502.336 895.448L500.614 895.603C501.124 891.379 502.502 887.307 504.661 883.643C503.514 887.495 502.736 891.448 502.336 895.448Z" fill="#73002D"/>
<path d="M496.48 877.154C497.799 881.806 498.709 886.564 499.201 891.375C499.619 885.808 500.624 880.3 502.198 874.945C501.31 881.814 500.815 888.729 500.717 895.655L499.511 895.775H498.288C498.288 895.775 497.651 883.643 496.48 877.154Z" fill="#73002D"/>
<path d="M493.327 896.345C491.056 892.914 488.473 889.702 485.61 886.749C489.343 889.292 492.597 892.476 495.222 896.155L493.327 896.345Z" fill="#73002D"/>
<path d="M494.981 892.98C493.499 888.482 491.774 884.069 489.813 879.76C491.442 882.353 492.898 885.051 494.171 887.837C492.961 882.795 491.478 877.823 489.727 872.943C491.932 877.188 493.809 881.596 495.343 886.128C494.189 880.951 492.707 874.755 491.295 870.44C494.801 878.571 497.412 887.06 499.08 895.758L498.03 895.862H496.014L494.809 895.983C491.602 890.025 488.047 884.263 484.163 878.724C488.261 883.08 491.888 887.859 494.981 892.98Z" fill="#73002D"/>
<path d="M1082.93 910.548L1081.21 910.704C1081.73 906.481 1083.1 902.411 1085.26 898.744C1084.1 902.595 1083.33 906.548 1082.93 910.548Z" fill="#73002D"/>
<path d="M1077.11 892.255C1078.43 896.906 1079.34 901.665 1079.83 906.475C1080.25 900.908 1081.25 895.401 1082.83 890.046C1081.94 896.915 1081.44 903.83 1081.35 910.755L1080.14 910.876H1078.92C1078.92 910.876 1078.28 898.744 1077.11 892.255Z" fill="#73002D"/>
<path d="M1073.96 911.532C1071.68 908.102 1069.1 904.889 1066.24 901.937C1069.98 904.473 1073.23 907.659 1075.85 911.342L1073.96 911.532Z" fill="#73002D"/>
<path d="M1075.61 908.08C1074.13 903.583 1072.4 899.17 1070.44 894.861C1072.07 897.449 1073.52 900.141 1074.8 902.92C1073.58 897.887 1072.11 892.922 1070.37 888.044C1072.57 892.292 1074.44 896.699 1075.97 901.229C1074.82 896.052 1073.34 889.856 1071.92 885.541C1075.43 893.672 1078.04 902.161 1079.71 910.859L1078.66 910.963H1076.64L1075.44 911.083C1072.23 905.126 1068.68 899.363 1064.79 893.825C1068.89 898.181 1072.52 902.959 1075.61 908.08Z" fill="#73002D"/>
<path d="M1160.43 913.258L1158.93 912.464C1161.67 909.221 1165.06 906.578 1168.87 904.698C1165.79 907.275 1162.96 910.141 1160.43 913.258Z" fill="#73002D"/>
<path d="M1165.59 894.792C1164.15 899.41 1162.3 903.892 1160.06 908.184C1163.48 903.768 1167.34 899.72 1171.59 896.103C1167.08 901.338 1162.88 906.829 1159.01 912.55L1157.96 911.998L1157.52 911.756L1156.86 911.411C1156.86 911.411 1163.01 900.867 1165.59 894.792Z" fill="#73002D"/>
<path d="M1152.43 909.099C1152.42 904.986 1152.02 900.884 1151.25 896.845C1152.98 901.015 1153.96 905.464 1154.12 909.979L1152.43 909.099Z" fill="#73002D"/>
<path d="M1155.67 907.2C1156.91 902.654 1157.9 898.045 1158.65 893.394C1158.59 896.45 1158.33 899.5 1157.88 902.523C1159.61 897.645 1161.1 892.679 1162.32 887.647C1161.83 892.405 1160.98 897.119 1159.77 901.747C1161.67 896.776 1163.8 890.788 1164.94 886.422C1163.41 895.144 1160.94 903.674 1157.57 911.86L1156.64 911.36L1156.07 911.066L1155.45 910.738L1155.03 910.514L1154.83 910.41L1153.76 909.858C1154.36 903.099 1154.56 896.311 1154.36 889.528C1155.41 895.358 1155.85 901.28 1155.67 907.2Z" fill="#73002D"/>
<path d="M163.326 880.07L161.38 879.259C164.432 874.928 168.343 871.273 172.869 868.525C169.332 872.063 166.137 875.929 163.326 880.07Z" fill="#73002D"/>
<path d="M167.719 856.565C166.429 862.465 164.625 868.24 162.327 873.823C166.07 867.958 170.417 862.504 175.298 857.549C170.292 864.544 165.691 871.822 161.518 879.346L160.139 878.776L159.571 878.535L158.71 878.172C158.71 878.172 165.186 864.366 167.719 856.565Z" fill="#73002D"/>
<path d="M152.957 875.756C152.483 870.653 151.543 865.604 150.149 860.672C152.75 865.665 154.441 871.083 155.144 876.671L152.957 875.756Z" fill="#73002D"/>
<path d="M156.746 873.046C157.799 867.252 158.535 861.404 158.951 855.529C159.2 859.334 159.2 863.15 158.951 866.954C160.59 860.7 161.895 854.363 162.861 847.97C162.771 853.928 162.23 859.871 161.242 865.746C162.964 859.361 165.031 851.715 166.048 846.141C165.1 857.132 162.963 867.988 159.674 878.517L158.469 878.017L157.728 877.706H157.625L156.815 877.361L156.281 877.137L156.109 877.016L154.714 876.446C154.704 867.984 154.192 859.53 153.18 851.129C155.134 858.289 156.329 865.635 156.746 873.046Z" fill="#73002D"/>
<path d="M711.795 956.835H709.969C710.957 952.369 712.845 948.153 715.516 944.443C713.881 948.445 712.635 952.594 711.795 956.835Z" fill="#73002D"/>
<path d="M707.42 936.677C708.369 941.801 708.865 946.999 708.901 952.21C709.914 946.303 711.542 940.518 713.759 934.951C712.117 942.193 710.892 949.522 710.09 956.904H707.471C707.471 956.904 708.023 943.736 707.42 936.677Z" fill="#73002D"/>
<path d="M702.149 956.887C700.068 952.991 697.628 949.299 694.863 945.859C698.601 948.947 701.758 952.682 704.181 956.887H702.149Z" fill="#73002D"/>
<path d="M704.216 953.452C703.113 948.502 701.739 943.616 700.099 938.817C701.579 941.751 702.868 944.777 703.957 947.878C703.161 942.37 702.075 936.909 700.702 931.517C702.631 936.274 704.192 941.172 705.37 946.169C704.664 940.509 703.647 933.743 702.631 928.997C705.552 938.047 707.486 947.386 708.402 956.852H703.699C700.879 950.129 697.658 943.582 694.053 937.247C698.004 942.272 701.411 947.705 704.216 953.452Z" fill="#73002D"/>
<path d="M925.078 914.104C925.336 910.1 925.078 883.85 925.078 878.448C925.078 873.046 926.955 872.667 928.092 872.667C929.229 872.667 931.434 873.927 931.434 877.447C931.434 880.968 931.727 905.198 931.434 909.22C931.141 913.241 932.192 915.743 934.07 915.743C935.947 915.743 937.515 912.723 937.825 907.338C938.135 901.954 939.203 850.197 939.203 843.155C939.203 836.114 941.718 836.131 943.354 836.511C944.99 836.891 946.351 839.013 946.351 842.034C946.351 845.054 945.61 891.375 945.61 898.157C945.61 904.94 946.11 907.459 948.728 907.2C951.346 906.941 951.863 902.679 951.863 900.176C951.863 897.674 951.863 821.099 952.001 815.818C952.139 810.537 956.256 811.297 957.169 812.816C958.082 814.334 958.168 819.719 957.926 829.763C957.685 839.807 957.41 904.059 956.91 907.08C956.411 910.1 957.978 916.554 958.926 917.434C959.873 918.315 961.802 916.934 961.802 913.172C961.802 909.409 962.302 861.294 962.439 856.91C962.577 852.527 967.607 853.269 968.451 854.649C969.295 856.03 969.708 857.911 969.708 864.693C969.708 871.476 968.882 909.03 968.882 916.468C968.882 923.906 967.349 924.165 965.041 926.478C962.732 928.79 957.858 927.513 955.549 930.343C953.241 933.174 952.983 958.336 952.983 965.257L940.253 964.256C940.253 964.256 941.373 924.942 940.253 923.44C939.134 921.939 933.363 922.439 930.469 922.439C927.576 922.439 924.837 918.125 925.078 914.104Z" fill="#73002D"/>
</g>
<defs>
<clipPath id="clip0_6_534">
<rect width="1728" height="1053" fill="white"/>
</clipPath>
</defs>
</svg>
