<svg width="1728" height="1053" viewBox="0 0 1728 1053" fill="none" xmlns="http://www.w3.org/2000/svg">
<g clip-path="url(#clip0_6_534)">
<g clip-path="url(#clip1_6_534)">
<path d="M1728.02 776.186V1040H-62L-30.7335 758.318C-30.7335 758.318 51.3489 763.72 78.7097 778.078C106.07 792.435 151.017 792.435 172.509 792.435C194.001 792.435 252.839 803.66 270.32 793.57C287.8 783.48 344.464 772.696 373.767 772.696C403.07 772.696 481.247 781.672 496.87 788.841C512.492 796.009 520.325 812.195 569.177 826.552C618.03 840.91 676.678 868.342 688.395 863.507C700.112 858.672 815.424 830.504 854.502 836.537C893.58 842.57 926.81 864.138 948.217 860.585C969.625 857.033 1014.66 874.964 1043.98 865.988C1073.3 857.012 1145.59 843.012 1159.27 836.558C1172.95 830.105 1217.9 826.489 1243.3 821.108C1268.69 815.727 1370.33 797.775 1378.14 786.991C1385.95 776.207 1393.76 767.462 1407.44 765.549C1421.12 763.636 1417.21 763.657 1438.71 758.255C1460.2 752.853 1481.71 742.09 1493.43 747.492C1505.14 752.895 1509.77 763.636 1545.57 758.255C1581.38 752.874 1602.87 751.087 1632.13 756.468C1661.39 761.85 1728.02 776.186 1728.02 776.186Z" fill="#B52A51"/>
</g>
</g>
<defs>
<clipPath id="clip0_6_534">
<rect width="1728" height="1053" fill="white"/>
</clipPath>
<clipPath id="clip1_6_534">
<rect width="1790" height="294" fill="white" transform="translate(-62 746)"/>
</clipPath>
</defs>
</svg>
