<svg width="1728" height="1117" viewBox="0 0 1728 1117" fill="none" xmlns="http://www.w3.org/2000/svg">
<rect width="1728" height="1117" fill="white"/>
<g clip-path="url(#clip0_6_531)">
<g clip-path="url(#clip1_6_531)">
<path d="M1734.31 -145H-60.9226V1052.96H1734.31V-145Z" fill="url(#paint0_linear_6_531)"/>
<path opacity="0.1" d="M1005.95 301.242C1371.71 301.242 1668.22 299.557 1668.22 297.48C1668.22 295.402 1371.71 293.718 1005.95 293.718C640.185 293.718 343.675 295.402 343.675 297.48C343.675 299.557 640.185 301.242 1005.95 301.242Z" fill="url(#paint1_linear_6_531)"/>
<path opacity="0.1" d="M-175.578 306.417C23.2994 306.417 184.522 302.416 184.522 297.48C184.522 292.544 23.2994 288.543 -175.578 288.543C-374.456 288.543 -535.678 292.544 -535.678 297.48C-535.678 302.416 -374.456 306.417 -175.578 306.417Z" fill="url(#paint2_linear_6_531)"/>
<path opacity="0.1" d="M-175.578 403.476C23.2994 403.476 184.522 387.514 184.522 367.824C184.522 348.135 23.2994 332.173 -175.578 332.173C-374.456 332.173 -535.678 348.135 -535.678 367.824C-535.678 387.514 -374.456 403.476 -175.578 403.476Z" fill="url(#paint3_linear_6_531)"/>
<path opacity="0.1" d="M107.159 186.549C518.372 186.549 851.725 184.253 851.725 181.421C851.725 178.59 518.372 176.294 107.159 176.294C-304.054 176.294 -637.408 178.59 -637.408 181.421C-637.408 184.253 -304.054 186.549 107.159 186.549Z" fill="url(#paint4_linear_6_531)"/>
<path opacity="0.2" d="M1270.11 314.275C1270.11 313.413 1090.59 312.718 869.127 312.718C647.668 312.718 468.144 313.413 468.144 314.275C468.144 315.138 647.668 315.809 869.127 315.809C1090.59 315.809 1270.11 315.018 1270.11 314.275Z" fill="url(#paint5_linear_6_531)"/>
<path opacity="0.1" d="M977.224 383.23C977.224 382.368 797.27 381.673 575.284 381.673C353.297 381.673 173.343 382.368 173.343 383.23C173.343 384.093 353.297 384.764 575.284 384.764C797.27 384.764 977.224 384.069 977.224 383.23Z" fill="url(#paint6_linear_6_531)"/>
<path opacity="0.1" d="M1984.52 269.208C1984.52 268.37 1636.36 267.675 1206.87 267.675C777.379 267.675 429.2 268.37 429.2 269.208C429.2 270.047 777.379 270.765 1206.87 270.765C1636.36 270.765 1984.52 270.071 1984.52 269.208Z" fill="url(#paint7_linear_6_531)"/>
<path opacity="0.1" d="M347.026 68.2376C347.026 66.0333 523.246 64.2603 740.613 64.2603C957.979 64.2603 1134.22 66.0094 1134.22 68.2376C1134.22 70.4658 958.003 72.2148 740.613 72.2148C523.222 72.2148 347.026 70.4179 347.026 68.2376Z" fill="url(#paint8_linear_6_531)"/>
<path opacity="0.28" d="M1007.91 210.412C1007.91 209.046 798.97 208.016 541.15 208.016C283.331 208.016 74.39 209.118 74.39 210.412C74.39 211.706 283.331 212.808 541.15 212.808C798.97 212.808 1007.91 211.778 1007.91 210.412Z" fill="url(#paint9_linear_6_531)"/>
<path opacity="0.28" d="M761.341 91.8135C887.854 91.8135 990.413 90.7087 990.413 89.3457C990.413 87.9828 887.854 86.8779 761.341 86.8779C634.829 86.8779 532.27 87.9828 532.27 89.3457C532.27 90.7087 634.829 91.8135 761.341 91.8135Z" fill="url(#paint10_linear_6_531)"/>
<path d="M726.251 516.995H1027.42C1027.42 516.995 1019.4 515.198 1013.06 513.689C1001.69 510.981 1006.45 494.186 982.826 502.476C979.481 497.919 974.661 494.665 969.188 493.267C963.715 491.869 957.926 492.414 952.809 494.809C953.49 490.879 952.783 486.834 950.809 483.369C948.836 479.903 945.72 477.233 941.995 475.817C938.269 474.4 934.168 474.325 930.394 475.604C926.619 476.884 923.407 479.438 921.309 482.829C921.533 476.881 919.927 471.007 916.707 466.002C913.488 460.997 908.811 457.103 903.309 454.845C883.633 446.123 868.505 460.427 864.771 466.249C864.771 466.249 855.029 449.861 830.59 455.467C806.151 461.074 809.047 488.627 809.047 488.627C809.047 488.627 799.951 478.876 789.18 486.231C777.451 494.138 785.039 506.764 785.039 506.764C785.039 506.764 763.544 509.52 726.251 516.995Z" fill="url(#paint11_linear_6_531)"/>
<path opacity="0.6" d="M60.1716 126.483H381.71C381.71 126.483 373.14 124.566 366.414 122.961C354.302 120.086 359.377 102.14 334.172 110.981C330.589 106.123 325.439 102.654 319.594 101.161C313.749 99.6674 307.568 100.242 302.097 102.787C302.759 98.6289 301.973 94.3694 299.869 90.723C297.766 87.0765 294.474 84.2647 290.546 82.7593C286.618 81.2538 282.292 81.1462 278.293 82.4545C274.295 83.7627 270.868 86.4073 268.586 89.9447C268.814 83.6054 267.102 77.3476 263.68 72.0084C260.258 66.6693 255.289 62.5032 249.437 60.0675C228.445 50.7713 212.288 66.0573 208.314 72.2388C208.314 72.2388 197.926 54.7725 171.811 60.7384C145.697 66.7042 148.832 96.1502 148.832 96.1502C148.832 96.1502 139.09 85.7519 127.601 93.4907C115.058 101.924 123.172 115.413 123.172 115.413C123.172 115.413 99.9779 118.552 60.1716 126.483Z" fill="url(#paint12_linear_6_531)"/>
<path opacity="0.4" d="M786.571 139.684H1329.64C1329.64 139.684 1315.28 136.162 1303.81 133.191C1283.35 127.824 1291.85 94.5928 1249.33 110.981C1249.33 110.981 1229.92 79.8339 1195.19 95.8148C1195.19 95.8148 1199.67 72.0471 1179.49 60.1394C1159.31 48.2316 1141.4 64.2364 1138.41 72.119C1138.41 72.119 1141.4 33.9758 1105.91 16.7491C1070.41 -0.477607 1043.17 27.8183 1036.49 39.2948C1036.49 39.2948 1018.95 6.9258 974.855 17.995C930.764 29.0642 936.006 83.5955 936.006 83.5955C936.006 83.5955 919.586 64.4281 900.101 78.6599C878.966 94.3053 892.633 119.391 892.633 119.391C892.633 119.391 853.808 124.925 786.571 139.684Z" fill="url(#paint13_linear_6_531)"/>
<path opacity="0.6" d="M143.04 345.782H519.608C519.608 345.782 509.578 343.554 501.703 341.685C487.509 338.283 493.469 317.27 463.931 327.645C459.737 321.956 453.706 317.893 446.861 316.147C440.016 314.4 432.779 315.076 426.375 318.061C427.162 313.637 426.535 309.077 424.584 305.029C422.633 300.981 419.457 297.652 415.508 295.515C401.505 287.992 389.178 298.103 387 303.039C387.277 295.598 385.265 288.251 381.237 281.991C377.209 275.731 371.358 270.859 364.476 268.034C339.869 257.157 320.959 275.03 316.315 282.41C316.315 282.41 304.132 261.924 273.565 268.921C242.998 275.917 246.636 310.226 246.636 310.226C246.636 310.226 235.243 298.031 221.766 307.112C207.093 316.983 216.596 332.772 216.596 332.772C216.596 332.772 189.644 336.582 143.04 345.782Z" fill="url(#paint14_linear_6_531)"/>
<path opacity="0.4" d="M434.011 38.9115H739.775C739.775 38.9115 731.612 37.0906 725.221 35.5811C713.708 32.8258 718.519 15.7668 694.559 24.1765C691.155 19.5543 686.259 16.2534 680.7 14.8341C675.141 13.4147 669.264 13.9644 664.064 16.3897C664.757 12.4029 664.044 8.2987 662.047 4.78026C660.049 1.26182 656.892 -1.45193 653.115 -2.89612C649.338 -4.3403 645.177 -4.42505 641.345 -3.13584C637.513 -1.84663 634.247 0.736294 632.109 4.17049C632.325 -1.87181 630.686 -7.83536 627.412 -12.9163C624.138 -17.9972 619.386 -21.9512 613.797 -24.2452C593.834 -33.0862 578.467 -18.5429 574.685 -12.6489C574.685 -12.6489 564.799 -29.4204 540.001 -23.5983C515.203 -17.7762 518.123 9.94468 518.123 9.94468C518.123 9.94468 508.884 0.0494957 497.945 7.54875C485.977 15.5751 493.732 28.3933 493.732 28.3933C493.732 28.3933 471.854 31.3403 434.011 38.9115Z" fill="url(#paint15_linear_6_531)"/>
<path opacity="0.8" d="M1007.91 180.463H1321.96C1321.96 180.463 1313.6 178.426 1307.02 176.725C1295.05 173.611 1300.15 154.395 1275.52 163.883C1275.52 163.883 1264.29 145.866 1244.21 155.114C1244.21 155.114 1246.8 141.361 1235.14 134.485C1223.48 127.609 1213.09 136.881 1211.37 141.361C1211.37 141.361 1213.09 119.295 1192.58 109.352C1172.07 99.4086 1156.29 115.749 1152.42 122.386C1152.42 122.386 1142.27 103.649 1116.77 110.047C1091.28 116.444 1094.3 147.998 1094.3 147.998C1094.3 147.998 1084.72 136.857 1073.57 145.147C1061.34 154.18 1069.26 168.627 1069.26 168.627C1069.26 168.627 1046.78 171.933 1007.91 180.463Z" fill="url(#paint16_linear_6_531)"/>
<path opacity="0.4" d="M343.603 299.133H533.73C525.59 296.396 517.24 294.329 508.764 292.952C508.764 292.952 511.158 282.002 497.131 277.067C497.688 274.954 497.479 272.711 496.541 270.738C495.603 268.764 493.998 267.187 492.009 266.285C490.207 265.514 488.254 265.162 486.296 265.258C484.339 265.353 482.429 265.893 480.711 266.836C480.013 263.193 478.163 259.871 475.435 257.36C472.707 254.849 469.245 253.283 465.559 252.892C452.322 251.287 451.197 261.182 451.197 261.182C449.195 260.063 446.964 259.416 444.674 259.291C442.384 259.167 440.096 259.568 437.984 260.463C435.783 261.352 433.847 262.793 432.363 264.648C430.879 266.503 429.897 268.708 429.511 271.053C429.511 271.053 419.625 264.704 412.229 276.18C412.229 276.18 402.175 270.526 392.481 280.78C382.787 291.035 374.72 295.252 343.603 299.133Z" fill="url(#paint17_linear_6_531)"/>
<path opacity="0.4" d="M1311.38 433.976H1530.11C1520.84 430.114 1511.22 427.169 1501.38 425.183C1502.04 420.451 1501.07 415.636 1498.64 411.524C1496.21 407.412 1492.46 404.246 1488 402.541C1488 402.541 1490.4 392.526 1482.12 387.184C1475.82 383.158 1469.14 387.95 1469.14 387.95C1469.14 387.95 1466.89 370.34 1451.69 368.064C1436.49 365.788 1435.25 379.9 1435.25 379.9C1433.05 378.333 1430.47 377.409 1427.78 377.232C1425.09 377.054 1422.4 377.629 1420.02 378.894C1411.31 383.158 1410.28 393.988 1410.28 393.988C1410.28 393.988 1398.94 384.931 1390.41 401.176C1390.41 401.176 1378.83 393.125 1367.68 407.717C1356.52 422.308 1347.09 428.441 1311.38 433.976Z" fill="url(#paint18_linear_6_531)"/>
<path d="M1151.79 485.824H1524.94C1524.94 485.824 1471.51 471.76 1466.82 467.064C1462.13 462.368 1466.29 439.822 1447.07 428.729C1427.85 417.636 1406.02 433.521 1406.02 433.521C1406.02 433.521 1408.97 420.104 1397.38 412.844C1388.64 407.357 1378.23 415 1378.23 415C1378.23 415 1374.14 387.375 1350.61 401.559C1350.61 401.559 1341.49 376.09 1305.46 377.049C1269.44 378.007 1239.93 400.122 1230.57 412.844C1221.21 425.566 1223.12 443.368 1226 450.101C1223.35 448.082 1220.12 446.969 1216.8 446.925C1213.47 446.882 1210.22 447.911 1207.52 449.861C1197.2 456.594 1203.69 467.399 1201.51 470.035C1199.33 472.67 1171.97 484.506 1151.79 485.824Z" fill="url(#paint19_linear_6_531)"/>
<path opacity="0.4" d="M-268.188 122.242H220.953C220.953 122.242 150.891 103.793 144.739 97.6356C138.588 91.4781 144.069 61.9123 118.888 47.3211C93.7067 32.7299 65.0787 53.862 65.0787 53.862C65.0787 53.862 68.9085 36.2759 53.7328 26.7641C42.2673 19.5763 28.5517 29.5913 28.5517 29.5913C28.5517 29.5913 23.2139 -6.75496 -7.64017 11.8374C-7.64017 11.8374 -19.6084 -21.5618 -66.7871 -20.292C-113.966 -19.0221 -152.719 9.94465 -164.926 26.6443C-177.134 43.3439 -174.74 66.6563 -171.03 75.4254C-174.498 72.774 -178.727 71.3119 -183.091 71.2558C-187.454 71.1997 -191.719 72.5526 -195.254 75.1139C-208.802 83.9309 -200.305 98.0909 -203.129 101.469C-205.954 104.847 -241.738 120.493 -268.188 122.242Z" fill="url(#paint20_linear_6_531)"/>
<path opacity="0.4" d="M1906.65 241.631H1382.95C1382.95 241.631 1457.96 222.248 1464.52 215.779C1471.08 209.31 1465.26 178.259 1492.24 163.068C1519.22 147.878 1549.86 169.681 1549.86 169.681C1549.86 169.681 1545.74 151.233 1561.99 141.218C1574.27 133.67 1588.94 144.213 1588.94 144.213C1588.94 144.213 1594.69 106.141 1627.72 125.668C1627.72 125.668 1640.53 90.5677 1691.06 91.8854C1741.59 93.2032 1783.07 123.679 1796.21 141.218C1809.35 158.756 1806.67 183.266 1802.62 192.538C1806.36 189.75 1810.88 188.216 1815.54 188.156C1820.2 188.096 1824.76 189.512 1828.57 192.203C1842.93 201.475 1833.96 216.378 1837 220.02C1840.04 223.661 1878.41 239.81 1906.65 241.631Z" fill="url(#paint21_linear_6_531)"/>
</g>
</g>
<defs>
<linearGradient id="paint0_linear_6_531" x1="836.694" y1="1052.96" x2="836.694" y2="-145" gradientUnits="userSpaceOnUse">
<stop stop-color="#FFCCCE"/>
<stop offset="0.18" stop-color="#FFC5C7"/>
<stop offset="0.46" stop-color="#FFB1B3"/>
<stop offset="0.78" stop-color="#FF9093"/>
<stop offset="1" stop-color="#FF7679"/>
</linearGradient>
<linearGradient id="paint1_linear_6_531" x1="343.675" y1="297.48" x2="1668.22" y2="297.48" gradientUnits="userSpaceOnUse">
<stop stop-color="white" stop-opacity="0"/>
<stop offset="0.06" stop-color="white" stop-opacity="0.08"/>
<stop offset="0.33" stop-color="white" stop-opacity="0.4"/>
<stop offset="0.57" stop-color="white" stop-opacity="0.66"/>
<stop offset="0.76" stop-color="white" stop-opacity="0.84"/>
<stop offset="0.91" stop-color="white" stop-opacity="0.96"/>
<stop offset="1" stop-color="white"/>
</linearGradient>
<linearGradient id="paint2_linear_6_531" x1="-535.678" y1="297.48" x2="184.498" y2="297.48" gradientUnits="userSpaceOnUse">
<stop stop-color="white" stop-opacity="0"/>
<stop offset="0.06" stop-color="white" stop-opacity="0.08"/>
<stop offset="0.33" stop-color="white" stop-opacity="0.4"/>
<stop offset="0.57" stop-color="white" stop-opacity="0.66"/>
<stop offset="0.76" stop-color="white" stop-opacity="0.84"/>
<stop offset="0.91" stop-color="white" stop-opacity="0.96"/>
<stop offset="1" stop-color="white"/>
</linearGradient>
<linearGradient id="paint3_linear_6_531" x1="-535.678" y1="367.824" x2="184.498" y2="367.824" gradientUnits="userSpaceOnUse">
<stop stop-color="white" stop-opacity="0"/>
<stop offset="0.06" stop-color="white" stop-opacity="0.08"/>
<stop offset="0.33" stop-color="white" stop-opacity="0.4"/>
<stop offset="0.57" stop-color="white" stop-opacity="0.66"/>
<stop offset="0.76" stop-color="white" stop-opacity="0.84"/>
<stop offset="0.91" stop-color="white" stop-opacity="0.96"/>
<stop offset="1" stop-color="white"/>
</linearGradient>
<linearGradient id="paint4_linear_6_531" x1="-637.432" y1="181.421" x2="851.725" y2="181.421" gradientUnits="userSpaceOnUse">
<stop stop-color="white" stop-opacity="0"/>
<stop offset="0.06" stop-color="white" stop-opacity="0.08"/>
<stop offset="0.33" stop-color="white" stop-opacity="0.4"/>
<stop offset="0.57" stop-color="white" stop-opacity="0.66"/>
<stop offset="0.76" stop-color="white" stop-opacity="0.84"/>
<stop offset="0.91" stop-color="white" stop-opacity="0.96"/>
<stop offset="1" stop-color="white"/>
</linearGradient>
<linearGradient id="paint5_linear_6_531" x1="466.44" y1="316.184" x2="1267.43" y2="316.184" gradientUnits="userSpaceOnUse">
<stop stop-color="white" stop-opacity="0"/>
<stop offset="0.06" stop-color="white" stop-opacity="0.08"/>
<stop offset="0.33" stop-color="white" stop-opacity="0.4"/>
<stop offset="0.57" stop-color="white" stop-opacity="0.66"/>
<stop offset="0.76" stop-color="white" stop-opacity="0.84"/>
<stop offset="0.91" stop-color="white" stop-opacity="0.96"/>
<stop offset="1" stop-color="white"/>
</linearGradient>
<linearGradient id="paint6_linear_6_531" x1="172.003" y1="385.638" x2="974.907" y2="385.638" gradientUnits="userSpaceOnUse">
<stop stop-color="white" stop-opacity="0"/>
<stop offset="0.06" stop-color="white" stop-opacity="0.08"/>
<stop offset="0.33" stop-color="white" stop-opacity="0.4"/>
<stop offset="0.57" stop-color="white" stop-opacity="0.66"/>
<stop offset="0.76" stop-color="white" stop-opacity="0.84"/>
<stop offset="0.91" stop-color="white" stop-opacity="0.96"/>
<stop offset="1" stop-color="white"/>
</linearGradient>
<linearGradient id="paint7_linear_6_531" x1="427.567" y1="270.8" x2="1980.95" y2="270.8" gradientUnits="userSpaceOnUse">
<stop stop-color="white" stop-opacity="0"/>
<stop offset="0.06" stop-color="white" stop-opacity="0.08"/>
<stop offset="0.33" stop-color="white" stop-opacity="0.4"/>
<stop offset="0.57" stop-color="white" stop-opacity="0.66"/>
<stop offset="0.76" stop-color="white" stop-opacity="0.84"/>
<stop offset="0.91" stop-color="white" stop-opacity="0.96"/>
<stop offset="1" stop-color="white"/>
</linearGradient>
<linearGradient id="paint8_linear_6_531" x1="1140.7" y1="68.3545" x2="344.579" y2="68.3545" gradientUnits="userSpaceOnUse">
<stop stop-color="white" stop-opacity="0"/>
<stop offset="0.06" stop-color="white" stop-opacity="0.08"/>
<stop offset="0.33" stop-color="white" stop-opacity="0.4"/>
<stop offset="0.57" stop-color="white" stop-opacity="0.66"/>
<stop offset="0.76" stop-color="white" stop-opacity="0.84"/>
<stop offset="0.91" stop-color="white" stop-opacity="0.96"/>
<stop offset="1" stop-color="white"/>
</linearGradient>
<linearGradient id="paint9_linear_6_531" x1="65.9496" y1="211.583" x2="995.403" y2="211.583" gradientUnits="userSpaceOnUse">
<stop stop-color="white" stop-opacity="0"/>
<stop offset="0.06" stop-color="white" stop-opacity="0.08"/>
<stop offset="0.33" stop-color="white" stop-opacity="0.4"/>
<stop offset="0.57" stop-color="white" stop-opacity="0.66"/>
<stop offset="0.76" stop-color="white" stop-opacity="0.84"/>
<stop offset="0.91" stop-color="white" stop-opacity="0.96"/>
<stop offset="1" stop-color="white"/>
</linearGradient>
<linearGradient id="paint10_linear_6_531" x1="998.353" y1="89.6409" x2="542.359" y2="89.6409" gradientUnits="userSpaceOnUse">
<stop stop-color="white" stop-opacity="0"/>
<stop offset="0.06" stop-color="white" stop-opacity="0.08"/>
<stop offset="0.33" stop-color="white" stop-opacity="0.4"/>
<stop offset="0.57" stop-color="white" stop-opacity="0.66"/>
<stop offset="0.76" stop-color="white" stop-opacity="0.84"/>
<stop offset="0.91" stop-color="white" stop-opacity="0.96"/>
<stop offset="1" stop-color="white"/>
</linearGradient>
<linearGradient id="paint11_linear_6_531" x1="876.835" y1="516.995" x2="876.835" y2="452.041" gradientUnits="userSpaceOnUse">
<stop stop-color="white" stop-opacity="0"/>
<stop offset="0.06" stop-color="white" stop-opacity="0.08"/>
<stop offset="0.33" stop-color="white" stop-opacity="0.4"/>
<stop offset="0.57" stop-color="white" stop-opacity="0.66"/>
<stop offset="0.76" stop-color="white" stop-opacity="0.84"/>
<stop offset="0.91" stop-color="white" stop-opacity="0.96"/>
<stop offset="1" stop-color="white"/>
</linearGradient>
<linearGradient id="paint12_linear_6_531" x1="220.953" y1="126.483" x2="220.953" y2="57.1445" gradientUnits="userSpaceOnUse">
<stop stop-color="white" stop-opacity="0"/>
<stop offset="0.06" stop-color="white" stop-opacity="0.08"/>
<stop offset="0.33" stop-color="white" stop-opacity="0.4"/>
<stop offset="0.57" stop-color="white" stop-opacity="0.66"/>
<stop offset="0.76" stop-color="white" stop-opacity="0.84"/>
<stop offset="0.91" stop-color="white" stop-opacity="0.96"/>
<stop offset="1" stop-color="white"/>
</linearGradient>
<linearGradient id="paint13_linear_6_531" x1="1058.11" y1="139.684" x2="1058.11" y2="11.2624" gradientUnits="userSpaceOnUse">
<stop stop-color="white" stop-opacity="0"/>
<stop offset="0.06" stop-color="white" stop-opacity="0.08"/>
<stop offset="0.33" stop-color="white" stop-opacity="0.4"/>
<stop offset="0.57" stop-color="white" stop-opacity="0.66"/>
<stop offset="0.76" stop-color="white" stop-opacity="0.84"/>
<stop offset="0.91" stop-color="white" stop-opacity="0.96"/>
<stop offset="1" stop-color="white"/>
</linearGradient>
<linearGradient id="paint14_linear_6_531" x1="331.324" y1="345.782" x2="331.324" y2="264.584" gradientUnits="userSpaceOnUse">
<stop stop-color="white" stop-opacity="0"/>
<stop offset="0.06" stop-color="white" stop-opacity="0.08"/>
<stop offset="0.33" stop-color="white" stop-opacity="0.4"/>
<stop offset="0.57" stop-color="white" stop-opacity="0.66"/>
<stop offset="0.76" stop-color="white" stop-opacity="0.84"/>
<stop offset="0.91" stop-color="white" stop-opacity="0.96"/>
<stop offset="1" stop-color="white"/>
</linearGradient>
<linearGradient id="paint15_linear_6_531" x1="586.893" y1="38.9115" x2="586.893" y2="-27.0245" gradientUnits="userSpaceOnUse">
<stop stop-color="white" stop-opacity="0"/>
<stop offset="0.06" stop-color="white" stop-opacity="0.08"/>
<stop offset="0.33" stop-color="white" stop-opacity="0.4"/>
<stop offset="0.57" stop-color="white" stop-opacity="0.66"/>
<stop offset="0.76" stop-color="white" stop-opacity="0.84"/>
<stop offset="0.91" stop-color="white" stop-opacity="0.96"/>
<stop offset="1" stop-color="white"/>
</linearGradient>
<linearGradient id="paint16_linear_6_531" x1="1164.93" y1="180.463" x2="1164.93" y2="106.213" gradientUnits="userSpaceOnUse">
<stop stop-color="white" stop-opacity="0"/>
<stop offset="0.06" stop-color="white" stop-opacity="0.08"/>
<stop offset="0.33" stop-color="white" stop-opacity="0.4"/>
<stop offset="0.57" stop-color="white" stop-opacity="0.66"/>
<stop offset="0.76" stop-color="white" stop-opacity="0.84"/>
<stop offset="0.91" stop-color="white" stop-opacity="0.96"/>
<stop offset="1" stop-color="white"/>
</linearGradient>
<linearGradient id="paint17_linear_6_531" x1="438.679" y1="299.133" x2="438.679" y2="252.7" gradientUnits="userSpaceOnUse">
<stop stop-color="white" stop-opacity="0"/>
<stop offset="0.06" stop-color="white" stop-opacity="0.08"/>
<stop offset="0.33" stop-color="white" stop-opacity="0.4"/>
<stop offset="0.57" stop-color="white" stop-opacity="0.66"/>
<stop offset="0.76" stop-color="white" stop-opacity="0.84"/>
<stop offset="0.91" stop-color="white" stop-opacity="0.96"/>
<stop offset="1" stop-color="white"/>
</linearGradient>
<linearGradient id="paint18_linear_6_531" x1="1420.74" y1="433.976" x2="1420.74" y2="367.824" gradientUnits="userSpaceOnUse">
<stop stop-color="white" stop-opacity="0"/>
<stop offset="0.06" stop-color="white" stop-opacity="0.08"/>
<stop offset="0.33" stop-color="white" stop-opacity="0.4"/>
<stop offset="0.57" stop-color="white" stop-opacity="0.66"/>
<stop offset="0.76" stop-color="white" stop-opacity="0.84"/>
<stop offset="0.91" stop-color="white" stop-opacity="0.96"/>
<stop offset="1" stop-color="white"/>
</linearGradient>
<linearGradient id="paint19_linear_6_531" x1="1338.35" y1="485.824" x2="1338.35" y2="377.073" gradientUnits="userSpaceOnUse">
<stop stop-color="white" stop-opacity="0"/>
<stop offset="0.06" stop-color="white" stop-opacity="0.08"/>
<stop offset="0.33" stop-color="white" stop-opacity="0.4"/>
<stop offset="0.57" stop-color="white" stop-opacity="0.66"/>
<stop offset="0.76" stop-color="white" stop-opacity="0.84"/>
<stop offset="0.91" stop-color="white" stop-opacity="0.96"/>
<stop offset="1" stop-color="white"/>
</linearGradient>
<linearGradient id="paint20_linear_6_531" x1="-23.6297" y1="122.242" x2="-23.6297" y2="-20.3399" gradientUnits="userSpaceOnUse">
<stop stop-color="white" stop-opacity="0"/>
<stop offset="0.06" stop-color="white" stop-opacity="0.08"/>
<stop offset="0.33" stop-color="white" stop-opacity="0.4"/>
<stop offset="0.57" stop-color="white" stop-opacity="0.66"/>
<stop offset="0.76" stop-color="white" stop-opacity="0.84"/>
<stop offset="0.91" stop-color="white" stop-opacity="0.96"/>
<stop offset="1" stop-color="white"/>
</linearGradient>
<linearGradient id="paint21_linear_6_531" x1="1644.84" y1="241.631" x2="1644.84" y2="91.8136" gradientUnits="userSpaceOnUse">
<stop stop-color="white" stop-opacity="0"/>
<stop offset="0.06" stop-color="white" stop-opacity="0.08"/>
<stop offset="0.33" stop-color="white" stop-opacity="0.4"/>
<stop offset="0.57" stop-color="white" stop-opacity="0.66"/>
<stop offset="0.76" stop-color="white" stop-opacity="0.84"/>
<stop offset="0.91" stop-color="white" stop-opacity="0.96"/>
<stop offset="1" stop-color="white"/>
</linearGradient>
<clipPath id="clip0_6_531">
<rect width="1728" height="1053" fill="white"/>
</clipPath>
<clipPath id="clip1_6_531">
<rect width="3404" height="1318" fill="white" transform="translate(-1050 -145)"/>
</clipPath>
</defs>
</svg>
