<svg width="1728" height="1053" viewBox="0 0 1728 1053" fill="none" xmlns="http://www.w3.org/2000/svg">
<g clip-path="url(#clip0_6_534)">
<g clip-path="url(#clip1_6_534)">
<path d="M-118.37 747.815C-105.003 747.138 -69.1479 784.541 -40.8861 778.392C-22.4977 774.422 -8.28183 768.03 0.888123 768.829C10.0581 769.628 212.064 807.564 221.986 817.103C231.908 826.641 298.111 843.733 315.529 843.733C332.947 843.733 383.454 851.577 398.204 858.67C418.582 868.354 487.405 922.462 547.713 908.372C567.12 903.845 644.24 874.334 672.502 881.403C700.764 888.472 739.675 883.219 776.646 894.815C813.617 906.411 957.013 890.457 980.932 882.71C1004.85 874.963 1132.11 818.192 1145.14 822.308C1158.17 826.423 1208.22 830.636 1227.82 839.884C1247.42 849.132 1320.41 858.356 1344.26 865.739C1368.11 873.123 1424.75 852.134 1439.96 854.216C1455.17 856.298 1487.83 852.134 1496.54 852.134C1505.24 852.134 1659.07 795.435 1691.19 805.41C1723.31 815.384 1877.99 825.334 1877.99 825.334L1881.87 1153.15L-215.867 1189.23V808.702C-215.867 808.702 -134.235 748.614 -118.37 747.815Z" fill="#91083D"/>
</g>
</g>
<defs>
<clipPath id="clip0_6_534">
<rect width="1728" height="1053" fill="white"/>
</clipPath>
<clipPath id="clip1_6_534">
<rect width="1968" height="415" fill="white" transform="translate(-151 739)"/>
</clipPath>
</defs>
</svg>
