<svg width="1728" height="1053" viewBox="0 0 1728 1053" fill="none" xmlns="http://www.w3.org/2000/svg">
<g clip-path="url(#clip0_6_534)">
<g clip-path="url(#clip1_6_534)">
<path d="M1068.84 862.702C1071.21 860.809 1112.24 852.269 1115.82 851.323C1119.41 850.376 1135.74 835.436 1137.82 833.769C1139.9 832.102 1143.17 783.497 1143.17 781.603C1143.17 779.71 1177.65 755.057 1180.61 755.057C1183.58 755.057 1184.73 731.331 1184.73 728.491C1184.73 725.651 1189.49 717.111 1191.88 717.111C1194.27 717.111 1209.71 714.745 1212.68 712.357C1215.65 709.97 1229.94 687.231 1232.9 687.231C1235.87 687.231 1260.25 688.178 1260.25 688.178C1260.25 688.178 1266.21 717.111 1266.21 722.791C1266.21 728.47 1282.25 735.611 1284.74 739.397C1287.23 743.184 1288.24 781.562 1288.24 781.562C1288.24 781.562 1310.9 784.402 1313.8 786.789C1316.71 789.176 1321.52 808.602 1321.52 810.969C1321.52 813.335 1344.71 822.348 1347.1 824.242C1349.49 826.135 1355.34 878.301 1355.34 878.301H1037.93C1036.14 878.28 1066.46 864.595 1068.84 862.702Z" fill="#F06082"/>
<path opacity="0.4" d="M1068.84 862.702C1071.21 860.809 1112.24 852.269 1115.82 851.323C1119.41 850.376 1135.74 835.436 1137.82 833.769C1139.9 832.102 1143.17 783.497 1143.17 781.603C1143.17 779.71 1177.65 755.057 1180.61 755.057C1183.58 755.057 1184.73 731.331 1184.73 728.491C1184.73 725.651 1189.49 717.111 1191.88 717.111C1194.27 717.111 1209.71 714.745 1212.68 712.357C1215.65 709.97 1229.94 687.231 1232.9 687.231C1235.87 687.231 1260.25 688.178 1260.25 688.178C1260.25 688.178 1266.21 717.111 1266.21 722.791C1266.21 728.47 1282.25 735.611 1284.74 739.397C1287.23 743.184 1288.24 781.562 1288.24 781.562C1288.24 781.562 1310.9 784.402 1313.8 786.789C1316.71 789.176 1321.52 808.602 1321.52 810.969C1321.52 813.335 1344.71 822.348 1347.1 824.242C1349.49 826.135 1355.34 878.301 1355.34 878.301H1037.93C1036.14 878.28 1066.46 864.595 1068.84 862.702Z" fill="url(#paint0_linear_6_534)"/>
<path d="M-149.641 848.092C-144.389 842.947 75.8337 764.235 79.4996 762.177C83.1656 760.12 94.1839 754.461 95.2343 749.316C96.2846 744.171 109.919 690.668 108.333 683.98C106.747 677.292 107.282 659.286 107.282 657.228C107.282 655.17 115.15 640.766 115.15 639.222V569.771C115.15 561.539 112.596 544.048 112.596 541.99C112.596 539.932 121.452 528.1 123.017 528.1C124.582 528.1 141.367 536.331 142.417 539.932C143.468 543.533 147.154 554.851 147.154 554.851C146.68 557.378 145.797 559.811 144.539 562.054C141.923 567.713 148.658 641.28 147.69 647.968C146.722 654.656 150.82 679.35 151.809 683.98C152.797 688.61 162.292 696.841 162.292 696.841V629.448C162.292 617.615 160.232 493.117 160.232 493.117C160.232 493.117 161.797 451.96 163.898 447.844C165.999 443.729 178.047 440.128 178.047 438.07C178.047 436.012 190.116 433.954 191.681 424.694C193.246 415.434 201.649 403.087 207.415 404.116C213.182 405.145 230.482 400 234.189 400C237.896 400 265.081 410.804 265.081 410.804C265.081 410.804 268.747 455.561 270.313 455.561C271.878 455.561 274.432 432.411 274.432 432.411C274.432 432.411 286.789 433.687 289.631 436.526C292.473 439.366 298.034 483.856 298.034 487.458C298.034 491.059 315.333 495.689 316.899 498.776C318.464 501.862 318.958 578.516 317.949 583.147C316.94 587.777 328.432 597.037 328.432 599.095C328.432 601.153 332.098 608.355 335.249 611.442C338.4 614.528 338.4 675.749 338.4 686.552C338.4 697.356 359.118 747.505 363.114 751.374C367.109 755.243 384.594 757.033 394.006 767.322C403.418 777.611 485.242 807.964 494.139 813.109C503.036 818.253 549.211 824.941 556.542 826.485C563.874 828.028 584.861 839.346 600.06 847.063C615.259 854.78 639.396 846.548 644.112 845.005C648.829 843.462 684.479 837.803 688.165 837.803C691.852 837.803 705.98 828.542 707.566 825.97C709.152 823.398 727.481 824.941 730.632 825.97C733.783 826.999 739.014 817.224 740.6 814.138C742.186 811.051 750.548 788.929 750.548 785.328C750.548 781.727 752.133 762.177 752.133 759.605C752.133 757.033 760.516 753.946 760.516 753.946C761.527 750.065 762.216 746.108 762.575 742.114C762.575 738.512 767.806 736.969 769.907 736.969C772.008 736.969 771.493 713.819 771.493 711.246C771.493 708.674 778.31 700.443 778.31 700.443C778.31 700.443 793.509 697.356 795.074 698.899C796.639 700.443 798.225 727.709 798.225 729.767C798.225 731.824 802.941 748.287 805.042 750.345C807.143 752.403 809.161 806.935 809.161 808.479C809.161 810.022 826.461 819.797 830.127 823.398C833.793 826.999 849.013 831.629 857.395 835.745C865.777 839.86 898.811 852.722 901.962 854.265L934.049 869.843C947.251 871.736 973.633 863.834 995.505 863.834C1017.38 863.834 1067.59 864.472 1074.98 865.11C1082.37 865.748 1102.25 868.588 1111 872.107C1119.75 875.625 1145.11 889.166 1159.59 894.208C1174.06 899.249 1215.19 916.062 1217.83 916.062H-143.359C-143.359 916.062 -154.892 853.236 -149.641 848.092Z" fill="#F06082"/>
<path opacity="0.4" d="M-149.641 848.092C-144.389 842.947 75.8337 764.235 79.4996 762.177C83.1656 760.12 94.1839 754.461 95.2343 749.316C96.2846 744.171 109.919 690.668 108.333 683.98C106.747 677.292 107.282 659.286 107.282 657.228C107.282 655.17 115.15 640.766 115.15 639.222V569.771C115.15 561.539 112.596 544.048 112.596 541.99C112.596 539.932 121.452 528.1 123.017 528.1C124.582 528.1 141.367 536.331 142.417 539.932C143.468 543.533 147.154 554.851 147.154 554.851C146.68 557.378 145.797 559.811 144.539 562.054C141.923 567.713 148.658 641.28 147.69 647.968C146.722 654.656 150.82 679.35 151.809 683.98C152.797 688.61 162.292 696.841 162.292 696.841V629.448C162.292 617.615 160.232 493.117 160.232 493.117C160.232 493.117 161.797 451.96 163.898 447.844C165.999 443.729 178.047 440.128 178.047 438.07C178.047 436.012 190.116 433.954 191.681 424.694C193.246 415.434 201.649 403.087 207.415 404.116C213.182 405.145 230.482 400 234.189 400C237.896 400 265.081 410.804 265.081 410.804C265.081 410.804 268.747 455.561 270.313 455.561C271.878 455.561 274.432 432.411 274.432 432.411C274.432 432.411 286.789 433.687 289.631 436.526C292.473 439.366 298.034 483.856 298.034 487.458C298.034 491.059 315.333 495.689 316.899 498.776C318.464 501.862 318.958 578.516 317.949 583.147C316.94 587.777 328.432 597.037 328.432 599.095C328.432 601.153 332.098 608.355 335.249 611.442C338.4 614.528 338.4 675.749 338.4 686.552C338.4 697.356 359.118 747.505 363.114 751.374C367.109 755.243 384.594 757.033 394.006 767.322C403.418 777.611 485.242 807.964 494.139 813.109C503.036 818.253 549.211 824.941 556.542 826.485C563.874 828.028 584.861 839.346 600.06 847.063C615.259 854.78 639.396 846.548 644.112 845.005C648.829 843.462 684.479 837.803 688.165 837.803C691.852 837.803 705.98 828.542 707.566 825.97C709.152 823.398 727.481 824.941 730.632 825.97C733.783 826.999 739.014 817.224 740.6 814.138C742.186 811.051 750.548 788.929 750.548 785.328C750.548 781.727 752.133 762.177 752.133 759.605C752.133 757.033 760.516 753.946 760.516 753.946C761.527 750.065 762.216 746.108 762.575 742.114C762.575 738.512 767.806 736.969 769.907 736.969C772.008 736.969 771.493 713.819 771.493 711.246C771.493 708.674 778.31 700.443 778.31 700.443C778.31 700.443 793.509 697.356 795.074 698.899C796.639 700.443 798.225 727.709 798.225 729.767C798.225 731.824 802.941 748.287 805.042 750.345C807.143 752.403 809.161 806.935 809.161 808.479C809.161 810.022 826.461 819.797 830.127 823.398C833.793 826.999 849.013 831.629 857.395 835.745C865.777 839.86 898.811 852.722 901.962 854.265L934.049 869.843C947.251 871.736 973.633 863.834 995.505 863.834C1017.38 863.834 1067.59 864.472 1074.98 865.11C1082.37 865.748 1102.25 868.588 1111 872.107C1119.75 875.625 1145.11 889.166 1159.59 894.208C1174.06 899.249 1215.19 916.062 1217.83 916.062H-143.359C-143.359 916.062 -154.892 853.236 -149.641 848.092Z" fill="url(#paint1_linear_6_534)"/>
<path d="M315.333 851.528C317.681 843.297 335.928 846.425 344.764 844.532C353.599 842.638 366.533 822.863 368.304 819.035C370.075 815.208 376.542 795.473 377.119 789.732C377.695 783.99 404.778 785.287 411.265 785.287C417.753 785.287 433.034 777.632 434.805 772.549C436.576 767.466 441.272 715.856 441.272 710.814C441.272 705.772 448.027 708.592 449.51 706.987C450.993 705.381 449.51 678.959 449.51 676.407C449.51 673.856 458.922 678.959 461.867 680.235C464.812 681.511 465.698 703.488 467.16 705.073C468.622 706.657 468.334 722.276 468.334 729.293C468.334 736.311 471.876 761.766 474.224 761.766C476.572 761.766 479.517 754.131 479.517 750.942C479.517 747.752 477.746 689.207 478.94 685.976C480.025 682.646 481.832 679.596 484.233 677.045C487.178 673.856 480.691 628.007 481.865 622.904C483.039 617.8 490.7 610.166 496.59 610.804C502.481 611.442 527.771 614.631 527.771 619.714C527.771 624.797 530.716 638.235 531.89 645.828C533.064 653.421 537.183 726.083 538.357 728.655C540.609 733.474 542.003 738.648 542.476 743.945C543.671 752.855 548.655 776.747 551.311 779.607C553.968 782.468 564.842 775.142 568.385 774.504C571.927 773.866 571.33 785.986 575.449 790.431C577.302 792.489 620.758 808.952 625.453 810.187C630.149 811.421 658.406 819.097 664.296 820.373C670.186 821.649 727.584 866.345 727.584 866.345L765.376 884.083C765.376 884.083 260.262 885.997 262.033 884.083C263.805 882.169 312.986 859.883 315.333 851.528Z" fill="#F06082"/>
<path opacity="0.4" d="M315.333 851.528C317.681 843.297 335.928 846.425 344.764 844.532C353.599 842.638 366.533 822.863 368.304 819.035C370.075 815.208 376.542 795.473 377.119 789.732C377.695 783.99 404.778 785.287 411.265 785.287C417.753 785.287 433.034 777.632 434.805 772.549C436.576 767.466 441.272 715.856 441.272 710.814C441.272 705.772 448.027 708.592 449.51 706.987C450.993 705.381 449.51 678.959 449.51 676.407C449.51 673.856 458.922 678.959 461.867 680.235C464.812 681.511 465.698 703.488 467.16 705.073C468.622 706.657 468.334 722.276 468.334 729.293C468.334 736.311 471.876 761.766 474.224 761.766C476.572 761.766 479.517 754.131 479.517 750.942C479.517 747.752 477.746 689.207 478.94 685.976C480.025 682.646 481.832 679.596 484.233 677.045C487.178 673.856 480.691 628.007 481.865 622.904C483.039 617.8 490.7 610.166 496.59 610.804C502.481 611.442 527.771 614.631 527.771 619.714C527.771 624.797 530.716 638.235 531.89 645.828C533.064 653.421 537.183 726.083 538.357 728.655C540.609 733.474 542.003 738.648 542.476 743.945C543.671 752.855 548.655 776.747 551.311 779.607C553.968 782.468 564.842 775.142 568.385 774.504C571.927 773.866 571.33 785.986 575.449 790.431C577.302 792.489 620.758 808.952 625.453 810.187C630.149 811.421 658.406 819.097 664.296 820.373C670.186 821.649 727.584 866.345 727.584 866.345L765.376 884.083C765.376 884.083 260.262 885.997 262.033 884.083C263.805 882.169 312.986 859.883 315.333 851.528Z" fill="url(#paint2_linear_6_534)"/>
<path d="M1303.69 829.139L1316.95 801.112L1323.4 796.09L1330.34 763.042C1332.98 761.387 1335.74 759.909 1338.58 758.617C1339.42 758.617 1346.71 752.814 1348.26 752.814C1349.8 752.814 1355.69 744.46 1354.85 742.525C1354 740.591 1355.69 728.12 1355.69 728.12C1355.69 728.12 1366.5 721.659 1369.72 718.037C1372.93 714.415 1370.85 701.039 1370.85 695.401C1370.85 689.763 1370.15 682.025 1370.85 681.243C1373.62 679.169 1376.93 677.959 1380.39 677.765C1383.76 678.095 1398.78 679.185 1399.74 680.297C1400.71 681.408 1402.55 707.686 1402.83 709.559C1404.73 714.29 1407.08 718.825 1409.86 723.099C1410.82 724.211 1414.61 728.45 1414.61 729.396C1414.61 729.828 1415.03 737.895 1415.52 746.785C1418.2 744.912 1419.95 743.348 1419.95 742.422C1419.95 738.307 1426.6 704.661 1430.76 700.566C1434.92 696.471 1466.55 691.532 1466.55 691.532C1466.55 691.532 1468.22 625.064 1471.54 618.5C1474.85 611.936 1497.34 599.609 1497.34 589.69C1497.34 579.772 1505.58 529.787 1505.58 529.787C1505.58 529.787 1539.71 528.141 1543.89 528.141C1548.07 528.141 1568.01 567.548 1572.17 571.664C1576.33 575.78 1597.97 579.895 1601.29 579.895C1604.6 579.895 1611.28 594.67 1611.28 599.589C1611.28 604.507 1612.94 645.56 1617.1 645.56C1621.26 645.56 1669.54 688.219 1669.54 691.512C1669.54 694.804 1674.13 778.908 1677.04 781.789C1679.94 784.669 1702.84 810.598 1707.93 812.141C1713.02 813.685 1770.35 828.604 1773.67 831.835C1776.98 835.066 1819.45 858.916 1816.92 858.916H1372.39C1372.39 858.916 1373.61 845.684 1375.3 829.16L1303.69 829.139Z" fill="#F06082"/>
<path opacity="0.4" d="M1303.69 829.139L1316.95 801.112L1323.4 796.09L1330.34 763.042C1332.98 761.387 1335.74 759.909 1338.58 758.617C1339.42 758.617 1346.71 752.814 1348.26 752.814C1349.8 752.814 1355.69 744.46 1354.85 742.525C1354 740.591 1355.69 728.12 1355.69 728.12C1355.69 728.12 1366.5 721.659 1369.72 718.037C1372.93 714.415 1370.85 701.039 1370.85 695.401C1370.85 689.763 1370.15 682.025 1370.85 681.243C1373.62 679.169 1376.93 677.959 1380.39 677.765C1383.76 678.095 1398.78 679.185 1399.74 680.297C1400.71 681.408 1402.55 707.686 1402.83 709.559C1404.73 714.29 1407.08 718.825 1409.86 723.099C1410.82 724.211 1414.61 728.45 1414.61 729.396C1414.61 729.828 1415.03 737.895 1415.52 746.785C1418.2 744.912 1419.95 743.348 1419.95 742.422C1419.95 738.307 1426.6 704.661 1430.76 700.566C1434.92 696.471 1466.55 691.532 1466.55 691.532C1466.55 691.532 1468.22 625.064 1471.54 618.5C1474.85 611.936 1497.34 599.609 1497.34 589.69C1497.34 579.772 1505.58 529.787 1505.58 529.787C1505.58 529.787 1539.71 528.141 1543.89 528.141C1548.07 528.141 1568.01 567.548 1572.17 571.664C1576.33 575.78 1597.97 579.895 1601.29 579.895C1604.6 579.895 1611.28 594.67 1611.28 599.589C1611.28 604.507 1612.94 645.56 1617.1 645.56C1621.26 645.56 1669.54 688.219 1669.54 691.512C1669.54 694.804 1674.13 778.908 1677.04 781.789C1679.94 784.669 1702.84 810.598 1707.93 812.141C1713.02 813.685 1770.35 828.604 1773.67 831.835C1776.98 835.066 1819.45 858.916 1816.92 858.916H1372.39C1372.39 858.916 1373.61 845.684 1375.3 829.16L1303.69 829.139Z" fill="url(#paint3_linear_6_534)"/>
</g>
</g>
<defs>
<linearGradient id="paint0_linear_6_534" x1="1196.64" y1="878.342" x2="1196.64" y2="687.231" gradientUnits="userSpaceOnUse">
<stop stop-color="#FFAFB6"/>
<stop offset="0.03" stop-color="#FFB5BB" stop-opacity="0.93"/>
<stop offset="0.16" stop-color="#FFCBCF" stop-opacity="0.65"/>
<stop offset="0.28" stop-color="#FFDDE0" stop-opacity="0.42"/>
<stop offset="0.38" stop-color="#FFECEE" stop-opacity="0.24"/>
<stop offset="0.48" stop-color="#FFF6F7" stop-opacity="0.11"/>
<stop offset="0.56" stop-color="#FFFDFD" stop-opacity="0.03"/>
<stop offset="0.61" stop-color="white" stop-opacity="0"/>
</linearGradient>
<linearGradient id="paint1_linear_6_534" x1="533.373" y1="916" x2="533.373" y2="400" gradientUnits="userSpaceOnUse">
<stop stop-color="white"/>
<stop offset="0.01" stop-color="white" stop-opacity="0.95"/>
<stop offset="0.07" stop-color="white" stop-opacity="0.75"/>
<stop offset="0.13" stop-color="white" stop-opacity="0.57"/>
<stop offset="0.19" stop-color="white" stop-opacity="0.42"/>
<stop offset="0.26" stop-color="white" stop-opacity="0.29"/>
<stop offset="0.33" stop-color="white" stop-opacity="0.18"/>
<stop offset="0.4" stop-color="white" stop-opacity="0.1"/>
<stop offset="0.49" stop-color="white" stop-opacity="0.04"/>
<stop offset="0.59" stop-color="white" stop-opacity="0.01"/>
<stop offset="0.75" stop-color="white" stop-opacity="0"/>
</linearGradient>
<linearGradient id="paint2_linear_6_534" x1="513.705" y1="884.927" x2="513.705" y2="610.763" gradientUnits="userSpaceOnUse">
<stop stop-color="white"/>
<stop offset="0.03" stop-color="white" stop-opacity="0.89"/>
<stop offset="0.08" stop-color="white" stop-opacity="0.71"/>
<stop offset="0.15" stop-color="white" stop-opacity="0.54"/>
<stop offset="0.21" stop-color="white" stop-opacity="0.39"/>
<stop offset="0.28" stop-color="white" stop-opacity="0.27"/>
<stop offset="0.35" stop-color="white" stop-opacity="0.17"/>
<stop offset="0.44" stop-color="white" stop-opacity="0.09"/>
<stop offset="0.53" stop-color="white" stop-opacity="0.04"/>
<stop offset="0.65" stop-color="white" stop-opacity="0.01"/>
<stop offset="0.86" stop-color="white" stop-opacity="0"/>
</linearGradient>
<linearGradient id="paint3_linear_6_534" x1="1560.32" y1="858.895" x2="1560.32" y2="577.158" gradientUnits="userSpaceOnUse">
<stop stop-color="#FFAFB6"/>
<stop offset="0.03" stop-color="#FFB5BB" stop-opacity="0.93"/>
<stop offset="0.16" stop-color="#FFCBCF" stop-opacity="0.65"/>
<stop offset="0.28" stop-color="#FFDDE0" stop-opacity="0.42"/>
<stop offset="0.38" stop-color="#FFECEE" stop-opacity="0.24"/>
<stop offset="0.48" stop-color="#FFF6F7" stop-opacity="0.11"/>
<stop offset="0.56" stop-color="#FFFDFD" stop-opacity="0.03"/>
<stop offset="0.61" stop-color="white" stop-opacity="0"/>
</linearGradient>
<clipPath id="clip0_6_534">
<rect width="1728" height="1053" fill="white"/>
</clipPath>
<clipPath id="clip1_6_534">
<rect width="1968" height="516" fill="white" transform="translate(-151 400)"/>
</clipPath>
</defs>
</svg>
